# xmcd
#
# Track frame offsets:
#   150
#   24193
#   45990
#   66604
#   87505
#   110301
#   130598
#   155162
#   174904
#   198529
#   221087
#   243213
#   267155
#   290969
#
# Disc length: 4185 seconds
#
# Revision: 0
# Processed by: cddbd v1.5.2PL0 Copyright (c) Steve Scherf et al.
# Submitted via: GXTranscoder 2.24.2980
#
DISCID=cb10570e
DTITLE=Wissen für alle - Geschichte Europas
DYEAR=1900
DGENRE=Kinder
TTITLE0=Der 30-jährige Krieg
TTITLE1=Der Absolutismus
TTITLE2=Die Zeit der Aufklärung
TTITLE3=Die Französische Revolution
TTITLE4=Napoleon und Europa
TTITLE5=Industrielle Revolution
TTITLE6=Nationalismus und Imperialismus
TTITLE7=Das Deutsche Kaiserreich
TTITLE8=Der Erste Weltkrieg
TTITLE9=Zwischenkriegszeit
TTITLE10=Nationalsozialismus in Deutschland
TTITLE11=Der Zweite Weltkrieg
TTITLE12=Der Kalte Krieg
TTITLE13=DDR und Mauerfall
EXTD=
EXTT0=
EXTT1=
EXTT2=
EXTT3=
EXTT4=
EXTT5=
EXTT6=
EXTT7=
EXTT8=
EXTT9=
EXTT10=
EXTT11=
EXTT12=
EXTT13=
PLAYORDER=
